<mxfile host="app.diagrams.net" modified="2023-10-23T07:21:50.202Z" agent="Mozilla/5.0 (X11; Ubuntu; Linux x86_64; rv:109.0) Gecko/20100101 Firefox/118.0" etag="P45fdhm-1rOMUcdrPrOq" version="22.0.6" type="github">
  <diagram id="prtHgNgQTEPvFCAcTncT" name="Page-1">
    <mxGraphModel dx="1332" dy="629" grid="0" gridSize="10" guides="1" tooltips="1" connect="1" arrows="1" fold="1" page="0" pageScale="1" pageWidth="827" pageHeight="1169" math="0" shadow="0">
      <root>
        <mxCell id="0" />
        <mxCell id="1" parent="0" />
        <mxCell id="dNxyNK7c78bLwvsdeMH5-11" value="Organization Structure" style="swimlane;html=1;startSize=20;horizontal=1;containerType=tree;glass=0;fillColor=#dae8fc;strokeColor=#6c8ebf;strokeWidth=2;" parent="1" vertex="1">
          <mxGeometry x="40" y="75" width="710" height="620" as="geometry" />
        </mxCell>
        <UserObject label="%name%&lt;br&gt;&lt;i style=&quot;color: gray&quot;&gt;%position%&lt;/i&gt;&lt;br&gt;&lt;a href=&quot;mailto:%email%&quot;&gt;Email&lt;/a&gt;" name="Mr. Gerard Hounkponou" position="CEO" location="Abyssinya Building, 3rd floor, near Bole MedhaneAlem" email="contact@creavers.com" placeholders="1" link="https://creavers.com" id="dNxyNK7c78bLwvsdeMH5-12">
          <mxCell style="label;image=https://cdn3.iconfinder.com/data/icons/user-avatars-1/512/users-2-128.png;whiteSpace=wrap;html=1;rounded=0;glass=0;treeMoving=1;treeFolding=1;fillColor=#dae8fc;strokeColor=#6c8ebf;strokeWidth=2;" parent="dNxyNK7c78bLwvsdeMH5-11" vertex="1">
            <mxGeometry x="250" y="40" width="200" height="70" as="geometry" />
          </mxCell>
        </UserObject>
        <mxCell id="dNxyNK7c78bLwvsdeMH5-13" value="" style="endArrow=blockThin;endFill=1;fontSize=11;edgeStyle=elbowEdgeStyle;elbow=vertical;rounded=0;fillColor=#dae8fc;strokeColor=#6c8ebf;strokeWidth=2;" parent="dNxyNK7c78bLwvsdeMH5-11" target="dNxyNK7c78bLwvsdeMH5-14" edge="1">
          <mxGeometry relative="1" as="geometry">
            <mxPoint x="360" y="210" as="sourcePoint" />
            <Array as="points">
              <mxPoint x="250" y="245" />
            </Array>
          </mxGeometry>
        </mxCell>
        <UserObject label="%name%&lt;br&gt;&lt;i style=&quot;color: gray&quot;&gt;%position%&lt;/i&gt;&lt;br&gt;&lt;a href=&quot;mailto:%email%&quot;&gt;Email&lt;/a&gt;" name="Sir. Meskerem Juffar" position="Marketing Manager" location="Office 2" email="contact@creavers.com" placeholders="1" link="https://creavers.com" id="dNxyNK7c78bLwvsdeMH5-14">
          <mxCell style="label;image=https://cdn3.iconfinder.com/data/icons/user-avatars-1/512/users-3-128.png;whiteSpace=wrap;html=1;rounded=0;glass=0;treeFolding=1;treeMoving=1;fillColor=#ffe6cc;strokeColor=#d79b00;strokeWidth=2;" parent="dNxyNK7c78bLwvsdeMH5-11" vertex="1">
            <mxGeometry x="50" y="280" width="180" height="80" as="geometry" />
          </mxCell>
        </UserObject>
        <mxCell id="dNxyNK7c78bLwvsdeMH5-15" value="" style="endArrow=blockThin;endFill=1;fontSize=11;edgeStyle=elbowEdgeStyle;elbow=vertical;rounded=0;fillColor=#dae8fc;strokeColor=#6c8ebf;exitX=0.561;exitY=0.986;exitDx=0;exitDy=0;exitPerimeter=0;entryX=0.5;entryY=0;entryDx=0;entryDy=0;strokeWidth=2;" parent="dNxyNK7c78bLwvsdeMH5-11" target="dNxyNK7c78bLwvsdeMH5-16" edge="1">
          <mxGeometry relative="1" as="geometry">
            <mxPoint x="359.98" y="209.01999999999998" as="sourcePoint" />
            <mxPoint x="359" y="295" as="targetPoint" />
          </mxGeometry>
        </mxCell>
        <UserObject label="%name%&lt;br&gt;&lt;i style=&quot;color: gray&quot;&gt;%position%&lt;/i&gt;&lt;br&gt;&lt;a href=&quot;mailto:%email%&quot;&gt;Email&lt;/a&gt;" name="MSc. Ananiya Getachew" position="Project Manager / CTO" location="Abyssinya Building, 3rd floor, near Bole MedhaneAlem" email="contact@creavers.com" placeholders="1" link="https://creavers.com" id="dNxyNK7c78bLwvsdeMH5-16">
          <mxCell style="label;image=https://cdn3.iconfinder.com/data/icons/user-avatars-1/512/users-9-2-128.png;whiteSpace=wrap;html=1;rounded=0;glass=0;treeFolding=1;treeMoving=1;fillColor=#ffe6cc;strokeColor=#d79b00;strokeWidth=2;" parent="dNxyNK7c78bLwvsdeMH5-11" vertex="1">
            <mxGeometry x="270" y="280" width="205" height="80" as="geometry" />
          </mxCell>
        </UserObject>
        <mxCell id="dNxyNK7c78bLwvsdeMH5-17" value="" style="endArrow=blockThin;endFill=1;fontSize=11;edgeStyle=elbowEdgeStyle;elbow=vertical;rounded=0;fillColor=#dae8fc;strokeColor=#6c8ebf;strokeWidth=2;" parent="dNxyNK7c78bLwvsdeMH5-11" target="dNxyNK7c78bLwvsdeMH5-18" edge="1">
          <mxGeometry relative="1" as="geometry">
            <mxPoint x="360" y="235" as="sourcePoint" />
            <Array as="points">
              <mxPoint x="620" y="245" />
            </Array>
          </mxGeometry>
        </mxCell>
        <UserObject label="%name%&lt;br&gt;&lt;i style=&quot;color: gray&quot;&gt;%position%&lt;/i&gt;&lt;br&gt;&lt;a href=&quot;mailto:%email%&quot;&gt;Email&lt;/a&gt;" name="Sir. Samir Habtewold" position="Executive Secretary" location="Abyssinya Building, 3rd floor, near Bole MedhaneAlem" email="contact@creavers.com" placeholders="1" link="https://creavers.com" id="dNxyNK7c78bLwvsdeMH5-18">
          <mxCell style="label;image=https://cdn3.iconfinder.com/data/icons/user-avatars-1/512/users-3-128.png;whiteSpace=wrap;html=1;rounded=0;glass=0;fillColor=#ffe6cc;strokeColor=#d79b00;strokeWidth=2;" parent="dNxyNK7c78bLwvsdeMH5-11" vertex="1">
            <mxGeometry x="500" y="280" width="180" height="80" as="geometry" />
          </mxCell>
        </UserObject>
        <mxCell id="R47WpOzAu4U2Wh8acil--1" value="" style="edgeStyle=orthogonalEdgeStyle;rounded=0;orthogonalLoop=1;jettySize=auto;html=1;fillColor=#dae8fc;strokeColor=#6c8ebf;strokeWidth=2;" edge="1" source="dNxyNK7c78bLwvsdeMH5-12" target="R47WpOzAu4U2Wh8acil--2" parent="dNxyNK7c78bLwvsdeMH5-11">
          <mxGeometry relative="1" as="geometry" />
        </mxCell>
        <UserObject label="%name%&lt;br&gt;&lt;i style=&quot;color: gray&quot;&gt;%position%&lt;/i&gt;&lt;br&gt;&lt;a href=&quot;mailto:%email%&quot;&gt;Email&lt;/a&gt;" name="Mr. Jemal Mussa" position="COO" location="Abyssinya Building, 3rd floor, near Bole MedhaneAlem" email="contact@creavers.com" placeholders="1" link="https://creavers.com" id="R47WpOzAu4U2Wh8acil--2">
          <mxCell style="label;image=https://cdn3.iconfinder.com/data/icons/user-avatars-1/512/users-2-128.png;whiteSpace=wrap;html=1;rounded=0;glass=0;treeMoving=1;treeFolding=1;fillColor=#d5e8d4;strokeColor=#82b366;strokeWidth=2;" vertex="1" parent="dNxyNK7c78bLwvsdeMH5-11">
            <mxGeometry x="260" y="140" width="180" height="70" as="geometry" />
          </mxCell>
        </UserObject>
        <mxCell id="R47WpOzAu4U2Wh8acil--3" value="" style="endArrow=blockThin;endFill=1;fontSize=11;edgeStyle=elbowEdgeStyle;elbow=vertical;rounded=0;fillColor=#dae8fc;strokeColor=#6c8ebf;strokeWidth=2;" edge="1" target="R47WpOzAu4U2Wh8acil--4" source="dNxyNK7c78bLwvsdeMH5-14" parent="dNxyNK7c78bLwvsdeMH5-11">
          <mxGeometry relative="1" as="geometry">
            <mxPoint x="400" y="270" as="sourcePoint" />
          </mxGeometry>
        </mxCell>
        <UserObject label="%name%&lt;br&gt;&lt;i style=&quot;color: gray&quot;&gt;%position%&lt;/i&gt;&lt;br&gt;&lt;a href=&quot;mailto:%email%&quot;&gt;Email&lt;/a&gt;" name="Eyerusalem Yadessa" position="Digital Marketer" location="Abyssinya Building, 3rd floor, near Bole MedhaneAlem" email="contact@creavers.com" placeholders="1" link="https://creavers.com" id="R47WpOzAu4U2Wh8acil--4">
          <mxCell style="label;image=https://cdn3.iconfinder.com/data/icons/user-avatars-1/512/users-3-128.png;whiteSpace=wrap;html=1;rounded=0;glass=0;treeFolding=1;treeMoving=1;fillColor=#fff2cc;strokeColor=#d6b656;strokeWidth=2;" vertex="1" parent="dNxyNK7c78bLwvsdeMH5-11">
            <mxGeometry x="50" y="400" width="180" height="80" as="geometry" />
          </mxCell>
        </UserObject>
        <mxCell id="R47WpOzAu4U2Wh8acil--7" value="" style="endArrow=blockThin;endFill=1;fontSize=11;edgeStyle=elbowEdgeStyle;elbow=vertical;rounded=0;fillColor=#dae8fc;strokeColor=#6c8ebf;strokeWidth=2;" edge="1" target="R47WpOzAu4U2Wh8acil--8" source="dNxyNK7c78bLwvsdeMH5-16" parent="dNxyNK7c78bLwvsdeMH5-11">
          <mxGeometry relative="1" as="geometry">
            <mxPoint x="400" y="270" as="sourcePoint" />
          </mxGeometry>
        </mxCell>
        <UserObject label="%name%&lt;br&gt;&lt;i style=&quot;color: gray&quot;&gt;%position%&lt;/i&gt;&lt;br&gt;&lt;a href=&quot;mailto:%email%&quot;&gt;Email&lt;/a&gt;" name="Rekik Maylef" position="Senior Software Developer" location="Abyssinya Building, 3rd floor, near Bole MedhaneAlem" email="contact@creavers.com" placeholders="1" link="https://creavers.com" id="R47WpOzAu4U2Wh8acil--8">
          <mxCell style="label;image=https://cdn3.iconfinder.com/data/icons/user-avatars-1/512/users-3-128.png;whiteSpace=wrap;html=1;rounded=0;glass=0;treeFolding=1;treeMoving=1;fillColor=#fff2cc;strokeColor=#d6b656;strokeWidth=2;" vertex="1" parent="dNxyNK7c78bLwvsdeMH5-11">
            <mxGeometry x="267.5" y="400" width="210" height="80" as="geometry" />
          </mxCell>
        </UserObject>
        <mxCell id="R47WpOzAu4U2Wh8acil--9" value="" style="endArrow=blockThin;endFill=1;fontSize=11;edgeStyle=elbowEdgeStyle;elbow=vertical;rounded=0;fillColor=#dae8fc;strokeColor=#6c8ebf;strokeWidth=2;" edge="1" target="R47WpOzAu4U2Wh8acil--10" parent="dNxyNK7c78bLwvsdeMH5-11">
          <mxGeometry relative="1" as="geometry">
            <mxPoint x="360" y="480" as="sourcePoint" />
          </mxGeometry>
        </mxCell>
        <UserObject label="%name%&lt;br&gt;&lt;i style=&quot;color: gray&quot;&gt;%position%&lt;/i&gt;&lt;br&gt;&lt;a href=&quot;mailto:%email%&quot;&gt;Email&lt;/a&gt;" name="Fasil Getie" position="Junior Software Developer" location="Abyssinya Building, 3rd floor, near Bole MedhaneAlem" email="contact@creavers.com" placeholders="1" link="https://creavers.com" id="R47WpOzAu4U2Wh8acil--10">
          <mxCell style="label;image=https://cdn3.iconfinder.com/data/icons/user-avatars-1/512/users-9-2-128.png;whiteSpace=wrap;html=1;rounded=0;glass=0;treeFolding=1;treeMoving=1;fillColor=#f8cecc;strokeColor=#b85450;strokeWidth=2;" vertex="1" parent="dNxyNK7c78bLwvsdeMH5-11">
            <mxGeometry x="120" y="530" width="210" height="80" as="geometry" />
          </mxCell>
        </UserObject>
        <UserObject label="%name%&lt;br&gt;&lt;i style=&quot;color: gray&quot;&gt;%position%&lt;/i&gt;&lt;br&gt;&lt;a href=&quot;mailto:%email%&quot;&gt;Email&lt;/a&gt;" name="Tekleab Mulugeta " position="Junior Software Developer" location="Abyssinya Building, 3rd floor, near Bole MedhaneAlem" email="contact@creavers.com" placeholders="1" link="https://creavers.com" id="R47WpOzAu4U2Wh8acil--11">
          <mxCell style="label;image=https://cdn3.iconfinder.com/data/icons/user-avatars-1/512/users-9-2-128.png;whiteSpace=wrap;html=1;rounded=0;glass=0;treeFolding=1;treeMoving=1;fillColor=#f8cecc;strokeColor=#b85450;strokeWidth=2;" vertex="1" parent="dNxyNK7c78bLwvsdeMH5-11">
            <mxGeometry x="350" y="530" width="210" height="80" as="geometry" />
          </mxCell>
        </UserObject>
        <mxCell id="R47WpOzAu4U2Wh8acil--12" value="" style="endArrow=blockThin;endFill=1;fontSize=11;edgeStyle=elbowEdgeStyle;elbow=vertical;rounded=0;exitX=0.5;exitY=1;exitDx=0;exitDy=0;fillColor=#dae8fc;strokeColor=#6c8ebf;strokeWidth=2;" edge="1" parent="dNxyNK7c78bLwvsdeMH5-11" source="R47WpOzAu4U2Wh8acil--8" target="R47WpOzAu4U2Wh8acil--11">
          <mxGeometry relative="1" as="geometry">
            <mxPoint x="360" y="360" as="sourcePoint" />
            <mxPoint x="550" y="400" as="targetPoint" />
          </mxGeometry>
        </mxCell>
      </root>
    </mxGraphModel>
  </diagram>
</mxfile>
